<svg width="135" height="40" fill="none" xmlns="http://www.w3.org/2000/svg"><g clip-path="url(#clip0_3137_1081)"><path d="M130 0H5a5 5 0 0 0-5 5v30a5 5 0 0 0 5 5h125a5 5 0 0 0 5-5V5a5 5 0 0 0-5-5Z" fill="#000"/><path d="M130 .8a4.2 4.2 0 0 1 4.2 4.2v30a4.2 4.2 0 0 1-4.2 4.2H5A4.2 4.2 0 0 1 .8 35V5A4.2 4.2 0 0 1 5 .8h125Zm0-.8H5C2.25 0 0 2.25 0 5v30c0 2.75 2.25 5 5 5h125c2.75 0 5-2.25 5-5V5c0-2.75-2.25-5-5-5Z" fill="#A6A6A6"/><path d="M45.982 12.75c-.33.12-.97.31-1.73.31-.85 0-1.56-.22-2.11-.75-.49-.47-.79-1.22-.79-2.1 0-1.68 1.16-2.92 3.06-2.92.65 0 1.16.14 1.41.26l-.18.59c-.3-.13-.68-.24-1.25-.24-1.37 0-2.27.85-2.27 2.27s.86 2.28 2.18 2.28c.48 0 .8-.07.97-.15v-1.68h-1.15v-.59h1.86v2.72Zm4.2-2.4h-2.2v2.04h2.45V13h-3.17V7.35h3.05v.61h-2.32v1.78h2.2v.6l-.01.01Zm2.581-2.38h-1.72v-.62h4.18v.62h-1.73V13h-.74V7.97h.01Zm5.927-.62V13h-.73V7.35h.73Zm2.51.62h-1.72v-.62h4.18v.62h-1.73V13h-.74V7.97h.01Zm10.03 2.15c0 1.94-1.18 2.97-2.62 2.97-1.44 0-2.54-1.16-2.54-2.86 0-1.79 1.11-2.97 2.62-2.97s2.54 1.18 2.54 2.86Zm-4.38.09c0 1.21.65 2.29 1.8 2.29s1.81-1.06 1.81-2.35c0-1.12-.59-2.3-1.8-2.3s-1.81 1.11-1.81 2.35v.01ZM72.352 13V7.35h.8l1.81 2.86c.42.66.75 1.26 1.01 1.83h.02c-.07-.76-.08-1.45-.08-2.33V7.35h.69V13h-.74l-1.79-2.87c-.39-.63-.77-1.27-1.06-1.88h-.03c.04.72.06 1.4.06 2.34V13h-.69Z" fill="#fff" stroke="#fff" stroke-width=".2" stroke-miterlimit="10"/><path d="M68.14 21.75c-2.35 0-4.27 1.79-4.27 4.25s1.92 4.25 4.27 4.25c2.35 0 4.27-1.8 4.27-4.25s-1.92-4.25-4.27-4.25Zm0 6.83c-1.29 0-2.4-1.06-2.4-2.58s1.11-2.58 2.4-2.58c1.29 0 2.4 1.05 2.4 2.58s-1.11 2.58-2.4 2.58Zm-9.31-6.83c-2.35 0-4.27 1.79-4.27 4.25s1.92 4.25 4.27 4.25c2.35 0 4.27-1.8 4.27-4.25s-1.92-4.25-4.27-4.25Zm0 6.83c-1.29 0-2.4-1.06-2.4-2.58s1.11-2.58 2.4-2.58c1.29 0 2.4 1.05 2.4 2.58s-1.11 2.58-2.4 2.58Zm-11.08-5.53v1.8h4.32c-.13 1.01-.47 1.76-.98 2.27-.63.63-1.61 1.32-3.33 1.32-2.66 0-4.74-2.14-4.74-4.8 0-2.66 2.08-4.8 4.74-4.8 1.43 0 2.48.56 3.25 1.29l1.27-1.27c-1.08-1.03-2.51-1.82-4.53-1.82-3.64 0-6.7 2.96-6.7 6.61 0 3.65 3.06 6.61 6.7 6.61 1.97 0 3.45-.64 4.61-1.85 1.19-1.19 1.56-2.87 1.56-4.22 0-.42-.03-.81-.1-1.13h-6.07v-.01Zm45.31 1.4c-.35-.95-1.43-2.71-3.64-2.71s-4.01 1.72-4.01 4.25c0 2.38 1.8 4.25 4.22 4.25 1.95 0 3.08-1.19 3.54-1.88l-1.45-.97c-.48.71-1.14 1.18-2.09 1.18s-1.63-.43-2.06-1.29l5.69-2.35-.19-.48h-.01Zm-5.8 1.42c-.05-1.64 1.27-2.48 2.22-2.48.74 0 1.37.37 1.58.9l-3.8 1.58Zm-4.62 4.12h1.87v-12.5h-1.87v12.5Zm-3.06-7.3h-.06c-.42-.5-1.22-.95-2.24-.95-2.13 0-4.08 1.87-4.08 4.27 0 2.4 1.95 4.24 4.08 4.24 1.01 0 1.82-.45 2.24-.97h.06v.61c0 1.63-.87 2.5-2.27 2.5-1.14 0-1.85-.82-2.14-1.51l-1.63.68c.47 1.13 1.71 2.51 3.77 2.51 2.19 0 4.04-1.29 4.04-4.43V22h-1.77v.69Zm-2.14 5.88c-1.29 0-2.37-1.08-2.37-2.56s1.08-2.59 2.37-2.59 2.27 1.1 2.27 2.59c0 1.49-1 2.56-2.27 2.56Zm24.381-11.08h-4.47v12.5h1.87v-4.74h2.61c2.07 0 4.1-1.5 4.1-3.88s-2.03-3.88-4.1-3.88h-.01Zm.05 6.03h-2.65v-4.29h2.65c1.4 0 2.19 1.16 2.19 2.14 0 .98-.79 2.14-2.19 2.14v.01Zm11.53-1.8c-1.35 0-2.75.6-3.33 1.91l1.66.69c.35-.69 1.01-.92 1.7-.92.96 0 1.95.58 1.96 1.61v.13c-.34-.19-1.06-.48-1.95-.48-1.79 0-3.6.98-3.6 2.81 0 1.67 1.46 2.75 3.1 2.75 1.25 0 1.95-.56 2.38-1.22h.06v.96h1.8v-4.79c0-2.22-1.66-3.46-3.8-3.46l.02.01Zm-.23 6.85c-.61 0-1.46-.31-1.46-1.06 0-.96 1.06-1.33 1.98-1.33.82 0 1.21.18 1.7.42a2.257 2.257 0 0 1-2.22 1.98v-.01Zm10.58-6.58-2.14 5.42h-.06l-2.22-5.42h-2.01l3.33 7.58-1.9 4.21h1.95l5.13-11.79h-2.08Zm-16.81 8h1.87v-12.5h-1.87v12.5Z" fill="#fff"/><path d="m20.72 19.42-10.65 11.3a2.886 2.886 0 0 0 2.78 2.14c.53 0 1.03-.14 1.46-.4l.03-.02 11.98-6.91-5.61-6.11h.01Z" fill="#EA4335"/><path d="M31.49 17.5h-.01l-5.17-3.01-5.83 5.19 5.85 5.85 5.15-2.97a2.88 2.88 0 0 0 1.51-2.53c0-1.09-.6-2.04-1.5-2.52v-.01Z" fill="#FBBC04"/><path d="M10.069 9.28c-.06.24-.1.48-.1.74v19.96c0 .26.03.5.1.74l11.01-11.01-11.01-10.43Z" fill="#4285F4"/><path d="m20.8 20 5.51-5.51-11.97-6.94a2.889 2.889 0 0 0-4.27 1.72L20.8 20Z" fill="#34A853"/></g><defs><clipPath id="clip0_3137_1081"><path fill="#fff" d="M0 0h135v40H0z"/></clipPath></defs></svg>