<svg width="124" height="17" xmlns="http://www.w3.org/2000/svg"><path d="M34.603 8.89c.227-1.278 1.018-2.647 2.61-2.647 1.39 0 2.02 1.25 2.02 2.41 0 .186-.03.237-.246.237h-4.384zM37.3 4.768c-2.915 0-5.03 2.565-5.03 6.1 0 3.598 1.92 5.747 5.137 5.747 1.722 0 3.112-.77 3.546-1.496l.043-.074-.117-.997-.32.163c-.77.394-1.693.594-2.742.594-2.462 0-3.34-2.138-3.34-4.138 0-.125 0-.258.005-.393h6.968l.032-.213c.047-.307.047-.54.047-.836-.002-2.148-1.325-4.46-4.23-4.46zm73.136-2.328h-1.134l-.05.186c-.332 1.225-.766 2.03-2.106 2.77l-.13.072v1.107h1.32v7.174c0 2.008.78 2.864 2.608 2.864 1.09 0 2.22-.463 2.572-1.052l.048-.082-.16-.825-.275.1a5.03 5.03 0 01-1.495.25c-.776 0-1.2-.26-1.2-1.633V6.575h3.138v-1.54h-3.136V2.44zm-62.409 8.974c-.02.612-.053 1.868-.056 2.595-.38.407-1.078.82-1.977.82-.94 0-1.523-.576-1.523-1.5 0-1.276 1-1.923 2.973-1.923h.03c.158 0 .367 0 .554.007m2.066 2.535c0-1.03.023-1.98.046-2.892.02-.856.04-1.68.04-2.516 0-2.398-1.424-3.774-3.905-3.774-1.267 0-2.6.688-3.155 1.354l-.074.087.186 1.106.31-.174c.678-.38 1.445-.566 2.343-.566 1.503 0 2.173.73 2.173 2.365v1.025c-.31-.01-.684-.01-.918-.01-2.925 0-4.814 1.437-4.814 3.662 0 1.766 1.268 2.998 3.083 2.998 1.17 0 2.18-.6 2.746-1.187.213.737.854 1.187 1.752 1.187.68 0 1.38-.173 1.782-.44l.112-.075v-1.004h-.25c-1.257 0-1.46-.273-1.46-1.147m8.945-9.179c-.74 0-1.778.502-2.475 1.146V4.52l-.352.16c-1.057.476-1.82.71-2.974 1.05l-.18.055v.922l.2.04c1.206.248 1.206.338 1.206 1.44v5.407c0 1.437-.17 1.467-.502 1.526l-.925.144v1.094l.26-.01c.164-.007.354-.017.562-.03a28.62 28.62 0 011.634-.058c.62 0 1.44.038 2.04.067l.74.03v-1.103l-1.21-.135c-.3-.042-.5-.07-.5-1.526v-6.15c.584-.448 1.34-.713 2.043-.713.415 0 .888.076 1.076.173l.32.164.24-2.105-.212-.053a3.677 3.677 0 00-.992-.142m9.765 9.397c-.606.415-1.447.644-2.367.644-2.207 0-3.578-1.594-3.578-4.16 0-2.607 1.284-4.426 3.124-4.426 1.227 0 1.78.558 1.846 1.867l.013.237h1.31v-.25c0-.745.02-1.794.084-2.505l.016-.19-.18-.066a8.613 8.613 0 00-2.96-.548c-3 0-5.442 2.737-5.442 6.1 0 3.545 1.985 5.747 5.18 5.747 1.65 0 2.97-.776 3.418-1.543l.047-.08-.197-1.045-.316.217zm33.686-2.75c-.02.615-.052 1.875-.055 2.595-.38.407-1.078.82-1.976.82-.94 0-1.524-.576-1.524-1.5 0-1.276 1-1.923 2.973-1.923h.03c.157 0 .366 0 .553.007m2.067 2.535c0-1.03.024-1.98.046-2.892.02-.856.04-1.68.04-2.516 0-2.398-1.424-3.774-3.905-3.774-1.267 0-2.6.688-3.155 1.353l-.074.09.186 1.106.31-.174c.68-.38 1.445-.566 2.343-.566 1.502 0 2.172.73 2.172 2.365v1.025c-.31-.01-.683-.01-.918-.01-2.925 0-4.814 1.437-4.814 3.662 0 1.766 1.268 2.998 3.084 2.998 1.17 0 2.18-.6 2.747-1.187.212.736.853 1.187 1.75 1.187.69 0 1.373-.17 1.783-.44l.112-.075v-1.004h-.25c-1.257 0-1.46-.273-1.46-1.147m-24.048-.355V8.807c0-1.734-.366-4.04-3.537-4.04-1.037 0-2.098.557-2.843 1.143V0l-.364.186c-1.035.53-1.81.84-2.965 1.18l-.18.052v.923l.2.042c1.208.247 1.208.337 1.208 1.44v9.772c0 1.437-.17 1.467-.502 1.525l-.925.144v1.094l.61-.025c.51-.022 1.17-.05 1.846-.05.68 0 1.4.03 1.933.052l.567.023v-1.094l-.918-.144c-.317-.058-.51-.093-.51-1.526v-6.27c.387-.242 1.306-.75 2.26-.75 1.492 0 2.02.65 2.02 2.477v4.544c0 1.437-.17 1.467-.502 1.525l-.925.144v1.094l.608-.025c.513-.022 1.174-.05 1.848-.05.677 0 1.4.03 1.932.052l.57.023v-1.094l-.92-.144c-.318-.058-.51-.093-.51-1.526m36.071-4.704c.226-1.278 1.018-2.647 2.608-2.647 1.39 0 2.022 1.25 2.022 2.41 0 .186-.03.237-.248.237h-4.382zm2.695-4.122c-2.915 0-5.03 2.565-5.03 6.1 0 3.598 1.92 5.747 5.14 5.747 1.72 0 3.11-.77 3.544-1.496l.043-.074-.116-.997-.32.163c-.768.394-1.69.594-2.74.594-2.464 0-3.34-2.138-3.34-4.138 0-.125 0-.258.004-.393h6.97l.03-.213c.046-.307.046-.54.046-.836 0-2.148-1.323-4.46-4.23-4.46zM93.382 9.71a50.56 50.56 0 01-2.412-.06l-.455-.018v1.11l1.022.194c.353.07.686.136.686 1.505v2.36c-.68.35-1.734.405-2.323.405-2.74 0-4.51-2.354-4.51-5.998 0-3.59 1.82-6 4.53-6 1.747 0 2.78.94 2.91 2.65l.017.23h1.344l-.02-.268c-.087-1.205-.107-2.197-.128-3.157l-.004-.17-.16-.058c-.8-.292-2.077-.68-3.914-.68-4.03 0-6.954 3.199-6.954 7.606 0 4.434 2.61 7.3 6.65 7.3 1.91-.002 3.825-.454 4.577-.776l.152-.065v-3.4c0-1.31.217-1.421.597-1.505l.873-.174V9.634l-.597.026c-.49.02-1.103.05-1.88.05m-78.396-.82c.226-1.278 1.018-2.647 2.61-2.647 1.388 0 2.02 1.25 2.02 2.41 0 .186-.03.237-.247.237h-4.383zm2.696-4.122c-2.915 0-5.03 2.565-5.03 6.1 0 3.598 1.92 5.747 5.138 5.747 1.722 0 3.112-.77 3.546-1.496l.044-.074-.117-.997-.32.163c-.77.394-1.692.594-2.74.594-2.464 0-3.34-2.138-3.34-4.138 0-.125 0-.258.004-.393h6.967l.032-.213c.046-.307.046-.54.046-.836 0-2.148-1.323-4.46-4.23-4.46zm9.729 4.672c-1.318-.516-2.126-.878-2.126-1.807 0-1.267 1.185-1.456 1.89-1.456 1.27 0 1.856.574 1.958 1.918l.018.23h1.3l-.02-.266c-.063-.94-.084-1.516-.042-2.454l.008-.176-.163-.067c-.7-.288-1.85-.595-2.97-.595-2.3 0-3.907 1.306-3.907 3.175 0 2.366 1.804 3.024 3.254 3.554 1.348.492 2.175.846 2.175 1.876 0 1.073-.81 1.766-2.064 1.766-1.67 0-2.054-.716-2.24-2.22l-.026-.218H23.17l.016.265c.064 1.036.107 1.85.064 2.877l-.007.19.178.058c1.072.357 2.128.523 3.325.523 2.238 0 3.99-1.54 3.99-3.508 0-2.368-1.842-3.09-3.323-3.667M8.024 5.97c0 1.65-1.09 2.676-2.843 2.676A14.4 14.4 0 013.875 8.6V3.5c.454-.027 1.006-.027 1.502-.027 1.708 0 2.648.887 2.648 2.498m2.513 8.21c-1.072-1.197-2.217-2.815-3.102-4.377C9.1 9.25 10.362 7.578 10.362 5.86c0-2.432-1.718-3.884-4.597-3.884-.687 0-1.3.02-1.867.037-.486.015-.938.03-1.377.03-.847 0-1.724 0-2.26-.023L0 2.01v1.11l1.024.193c.352.07.685.135.685 1.506v8.73c0 1.37-.334 1.436-.685 1.504L0 15.248v1.11l.514-.02c.588-.022 1.476-.056 2.353-.056.986 0 2.258.045 2.76.066l.258.01v-1.12l-1.337-.185C4.2 15 3.874 14.95 3.874 13.55v-3.433c.388.024.767.026 1.268.026 1.338 2.432 2.58 4.202 3.24 4.983.735.903 1.833 1.4 3.093 1.4.414 0 .836-.077 1.1-.2l.145-.07v-.984h-.25c-.6 0-1.305-.398-1.933-1.09" fill="#FFF" fill-rule="evenodd"/></svg>